<svg xmlns="http://www.w3.org/2000/svg" xmlns:xlink="http://www.w3.org/1999/xlink" width="50" zoomAndPan="magnify" viewBox="0 0 37.5 37.499999" height="50" preserveAspectRatio="xMidYMid meet" version="1.2"><defs><clipPath id="8724c80145"><path d="M 2.847656 2.300781 L 20 2.300781 L 20 34.867188 L 2.847656 34.867188 Z M 2.847656 2.300781 "/></clipPath><clipPath id="721298120c"><path d="M 11 9 L 33.933594 9 L 33.933594 28 L 11 28 Z M 11 9 "/></clipPath></defs><g id="8da9993572"><path style=" stroke:none;fill-rule:nonzero;fill:#ffffff;fill-opacity:1;" d="M 18.359375 16.058594 C 18.277344 15.847656 18.078125 15.710938 17.855469 15.710938 C 17.628906 15.710938 17.429688 15.847656 17.351562 16.058594 L 15.742188 20.34375 C 15.640625 20.625 15.78125 20.929688 16.058594 21.035156 C 16.335938 21.136719 16.644531 21 16.75 20.71875 L 17.023438 19.996094 L 18.691406 19.996094 L 18.964844 20.71875 C 19.042969 20.933594 19.246094 21.070312 19.46875 21.070312 C 19.53125 21.070312 19.597656 21.058594 19.65625 21.035156 C 19.933594 20.933594 20.074219 20.625 19.964844 20.34375 Z M 17.425781 18.925781 L 17.859375 17.773438 L 18.292969 18.925781 Z M 17.425781 18.925781 "/><path style=" stroke:none;fill-rule:nonzero;fill:#ffffff;fill-opacity:1;" d="M 21.070312 15.710938 C 20.773438 15.710938 20.535156 15.949219 20.535156 16.246094 L 20.535156 20.53125 C 20.535156 20.828125 20.773438 21.070312 21.070312 21.070312 C 21.363281 21.070312 21.605469 20.828125 21.605469 20.53125 L 21.605469 16.246094 C 21.605469 15.949219 21.363281 15.710938 21.070312 15.710938 Z M 21.070312 15.710938 "/><g clip-rule="nonzero" clip-path="url(#8724c80145)"><path style=" stroke:none;fill-rule:nonzero;fill:#ffffff;fill-opacity:1;" d="M 18.925781 27.5 C 13.90625 27.5 9.816406 23.410156 9.816406 18.390625 C 9.816406 13.367188 13.90625 9.277344 18.925781 9.277344 C 19.222656 9.277344 19.460938 9.035156 19.460938 8.742188 L 19.460938 2.847656 C 19.460938 2.550781 19.222656 2.308594 18.925781 2.308594 L 16.101562 2.308594 C 15.855469 2.308594 15.640625 2.476562 15.582031 2.71875 L 14.816406 5.792969 C 14.160156 6.007812 13.527344 6.265625 12.929688 6.570312 L 10.210938 4.941406 C 10.003906 4.8125 9.730469 4.851562 9.558594 5.023438 L 5.566406 9.015625 C 5.394531 9.1875 5.355469 9.460938 5.484375 9.667969 L 7.113281 12.386719 C 6.808594 12.988281 6.546875 13.617188 6.335938 14.273438 L 3.261719 15.039062 C 3.019531 15.097656 2.851562 15.3125 2.851562 15.558594 L 2.851562 21.207031 C 2.851562 21.453125 3.019531 21.667969 3.261719 21.726562 L 6.335938 22.496094 C 6.550781 23.148438 6.808594 23.78125 7.113281 24.382812 L 5.484375 27.097656 C 5.355469 27.308594 5.394531 27.582031 5.566406 27.753906 L 9.558594 31.746094 C 9.730469 31.917969 10.003906 31.953125 10.210938 31.824219 L 12.929688 30.195312 C 13.527344 30.5 14.160156 30.765625 14.816406 30.972656 L 15.582031 34.050781 C 15.640625 34.289062 15.855469 34.457031 16.101562 34.457031 L 18.925781 34.457031 C 19.222656 34.457031 19.460938 34.214844 19.460938 33.921875 L 19.460938 28.027344 C 19.460938 27.730469 19.222656 27.488281 18.925781 27.488281 Z M 18.390625 33.394531 L 16.519531 33.394531 L 15.78125 30.433594 C 15.730469 30.25 15.59375 30.105469 15.414062 30.046875 C 14.628906 29.808594 13.867188 29.5 13.164062 29.117188 C 13 29.027344 12.792969 29.03125 12.632812 29.128906 L 10.019531 30.699219 L 6.617188 27.296875 L 8.1875 24.679688 C 8.28125 24.519531 8.289062 24.316406 8.195312 24.152344 C 7.816406 23.449219 7.503906 22.6875 7.269531 21.898438 C 7.214844 21.71875 7.070312 21.578125 6.882812 21.535156 L 3.917969 20.796875 L 3.917969 15.984375 L 6.882812 15.242188 C 7.066406 15.195312 7.210938 15.054688 7.269531 14.878906 C 7.503906 14.089844 7.816406 13.328125 8.195312 12.628906 C 8.289062 12.460938 8.28125 12.257812 8.1875 12.097656 L 6.617188 9.480469 L 10.019531 6.078125 L 12.632812 7.648438 C 12.792969 7.746094 13 7.75 13.164062 7.660156 C 13.867188 7.277344 14.628906 6.96875 15.414062 6.730469 C 15.597656 6.679688 15.738281 6.535156 15.78125 6.347656 L 16.519531 3.382812 L 18.390625 3.382812 L 18.390625 8.222656 C 13.023438 8.5 8.742188 12.953125 8.742188 18.390625 C 8.742188 23.824219 13.023438 28.277344 18.390625 28.554688 Z M 18.390625 33.394531 "/></g><g clip-rule="nonzero" clip-path="url(#721298120c)"><path style=" stroke:none;fill-rule:nonzero;fill:#ffffff;fill-opacity:1;" d="M 31.789062 16.246094 C 30.792969 16.246094 29.960938 16.929688 29.71875 17.851562 L 24.285156 17.851562 L 24.285156 15.710938 L 26.429688 15.710938 C 26.578125 15.710938 26.722656 15.644531 26.828125 15.53125 L 28.789062 13.382812 C 29.050781 13.496094 29.339844 13.566406 29.644531 13.566406 C 30.828125 13.566406 31.789062 12.605469 31.789062 11.421875 C 31.789062 10.238281 30.828125 9.277344 29.644531 9.277344 C 28.460938 9.277344 27.5 10.238281 27.5 11.421875 C 27.5 11.910156 27.671875 12.355469 27.945312 12.714844 L 26.195312 14.636719 L 24.285156 14.636719 L 24.285156 13.566406 C 24.285156 13.269531 24.042969 13.03125 23.75 13.03125 L 22.679688 13.03125 L 22.679688 11.957031 C 22.679688 11.664062 22.4375 11.421875 22.140625 11.421875 C 21.847656 11.421875 21.605469 11.664062 21.605469 11.957031 L 21.605469 13.03125 L 19.460938 13.03125 L 19.460938 11.957031 C 19.460938 11.664062 19.222656 11.421875 18.925781 11.421875 C 18.632812 11.421875 18.390625 11.664062 18.390625 11.957031 L 18.390625 13.03125 L 16.246094 13.03125 L 16.246094 11.957031 C 16.246094 11.664062 16.003906 11.421875 15.710938 11.421875 C 15.414062 11.421875 15.175781 11.664062 15.175781 11.957031 L 15.175781 13.03125 L 14.101562 13.03125 C 13.808594 13.03125 13.566406 13.269531 13.566406 13.566406 L 13.566406 14.636719 L 12.496094 14.636719 C 12.199219 14.636719 11.957031 14.878906 11.957031 15.171875 C 11.957031 15.46875 12.199219 15.710938 12.496094 15.710938 L 13.566406 15.710938 L 13.566406 17.851562 L 12.496094 17.851562 C 12.199219 17.851562 11.957031 18.09375 11.957031 18.390625 C 11.957031 18.683594 12.199219 18.925781 12.496094 18.925781 L 13.566406 18.925781 L 13.566406 21.070312 L 12.496094 21.070312 C 12.199219 21.070312 11.957031 21.308594 11.957031 21.605469 C 11.957031 21.898438 12.199219 22.140625 12.496094 22.140625 L 13.566406 22.140625 L 13.566406 23.210938 C 13.566406 23.507812 13.808594 23.75 14.101562 23.75 L 15.175781 23.75 L 15.175781 24.820312 C 15.175781 25.113281 15.414062 25.355469 15.710938 25.355469 C 16.003906 25.355469 16.246094 25.113281 16.246094 24.820312 L 16.246094 23.75 L 18.390625 23.75 L 18.390625 24.820312 C 18.390625 25.113281 18.632812 25.355469 18.925781 25.355469 C 19.222656 25.355469 19.460938 25.113281 19.460938 24.820312 L 19.460938 23.75 L 21.605469 23.75 L 21.605469 24.820312 C 21.605469 25.113281 21.847656 25.355469 22.140625 25.355469 C 22.4375 25.355469 22.679688 25.113281 22.679688 24.820312 L 22.679688 23.75 L 23.75 23.75 C 24.042969 23.75 24.285156 23.507812 24.285156 23.210938 L 24.285156 22.140625 L 26.195312 22.140625 L 27.945312 24.066406 C 27.671875 24.421875 27.5 24.867188 27.5 25.355469 C 27.5 26.539062 28.460938 27.5 29.644531 27.5 C 30.828125 27.5 31.789062 26.539062 31.789062 25.355469 C 31.789062 24.171875 30.828125 23.210938 29.644531 23.210938 C 29.339844 23.210938 29.050781 23.277344 28.789062 23.394531 L 26.828125 21.246094 C 26.722656 21.132812 26.578125 21.070312 26.429688 21.070312 L 24.285156 21.070312 L 24.285156 18.925781 L 29.71875 18.925781 C 29.960938 19.847656 30.792969 20.53125 31.789062 20.53125 C 32.972656 20.53125 33.933594 19.574219 33.933594 18.390625 C 33.933594 17.203125 32.972656 16.246094 31.789062 16.246094 Z M 29.644531 10.347656 C 30.234375 10.347656 30.71875 10.832031 30.71875 11.421875 C 30.71875 12.011719 30.234375 12.492188 29.644531 12.492188 C 29.054688 12.492188 28.574219 12.011719 28.574219 11.421875 C 28.574219 10.832031 29.054688 10.347656 29.644531 10.347656 Z M 30.71875 25.355469 C 30.71875 25.945312 30.234375 26.429688 29.644531 26.429688 C 29.054688 26.429688 28.574219 25.945312 28.574219 25.355469 C 28.574219 24.765625 29.054688 24.285156 29.644531 24.285156 C 30.234375 24.285156 30.71875 24.765625 30.71875 25.355469 Z M 23.214844 22.675781 L 14.636719 22.675781 L 14.636719 14.101562 L 23.214844 14.101562 Z M 31.789062 19.460938 C 31.199219 19.460938 30.71875 18.976562 30.71875 18.390625 C 30.71875 17.800781 31.199219 17.316406 31.789062 17.316406 C 32.378906 17.316406 32.859375 17.800781 32.859375 18.390625 C 32.859375 18.976562 32.378906 19.460938 31.789062 19.460938 Z M 31.789062 19.460938 "/></g></g></svg>