<svg xmlns="http://www.w3.org/2000/svg" xmlns:xlink="http://www.w3.org/1999/xlink" width="50" zoomAndPan="magnify" viewBox="0 0 37.5 37.499999" height="50" preserveAspectRatio="xMidYMid meet" version="1.2"><defs><clipPath id="e802516e78"><path d="M 1.414062 4 L 35.460938 4 L 35.460938 33.476562 L 1.414062 33.476562 Z M 1.414062 4 "/></clipPath></defs><g id="531c0e2e69"><g clip-rule="nonzero" clip-path="url(#e802516e78)"><path style=" stroke:none;fill-rule:nonzero;fill:#ffffff;fill-opacity:1;" d="M 33.53125 9.90625 L 24.675781 9.90625 C 24.390625 6.457031 21.371094 3.871094 17.921875 4.15625 C 14.84375 4.417969 12.429688 6.832031 12.171875 9.90625 L 3.347656 9.90625 C 2.367188 9.90625 1.5625 10.710938 1.535156 11.6875 L 1.535156 31.207031 C 1.535156 32.214844 2.339844 32.992188 3.347656 33.019531 L 33.53125 33.019531 C 34.535156 33.019531 35.3125 32.214844 35.34375 31.207031 L 35.34375 11.6875 C 35.3125 10.710938 34.507812 9.90625 33.53125 9.90625 Z M 2.570312 31.207031 L 2.570312 11.6875 C 2.570312 11.632812 2.570312 11.574219 2.597656 11.515625 L 13.839844 21.433594 L 2.570312 31.351562 C 2.570312 31.324219 2.570312 31.265625 2.570312 31.207031 Z M 18.4375 16.664062 C 21.714844 16.664062 24.417969 14.160156 24.675781 10.882812 L 33.472656 10.882812 L 19.042969 23.589844 C 18.699219 23.90625 18.152344 23.90625 17.804688 23.589844 L 3.375 10.914062 L 12.171875 10.914062 C 12.460938 14.160156 15.160156 16.664062 18.4375 16.664062 Z M 14.617188 22.125 L 17.171875 24.367188 C 17.921875 25 19.011719 25 19.730469 24.367188 L 22.289062 22.125 L 33.503906 32.011719 L 3.375 32.011719 Z M 23.039062 21.433594 L 34.308594 11.515625 C 34.308594 11.574219 34.335938 11.632812 34.335938 11.6875 L 34.335938 31.207031 C 34.335938 31.265625 34.335938 31.324219 34.308594 31.382812 Z M 18.4375 5.136719 C 21.34375 5.136719 23.699219 7.492188 23.699219 10.394531 C 23.699219 13.300781 21.34375 15.65625 18.4375 15.65625 C 15.535156 15.65625 13.179688 13.300781 13.179688 10.394531 C 13.179688 7.492188 15.535156 5.136719 18.4375 5.136719 Z M 18.4375 5.136719 "/></g><path style=" stroke:none;fill-rule:nonzero;fill:#ffffff;fill-opacity:1;" d="M 18.871094 6.945312 L 18.007812 6.945312 C 16.339844 6.945312 14.988281 8.296875 14.988281 9.964844 L 14.988281 10.828125 C 14.988281 12.492188 16.339844 13.84375 18.007812 13.84375 L 18.496094 13.84375 C 18.785156 13.84375 18.984375 13.617188 18.984375 13.328125 C 18.984375 13.039062 18.753906 12.808594 18.496094 12.808594 L 18.007812 12.808594 C 16.886719 12.808594 15.996094 11.917969 15.996094 10.796875 L 15.996094 9.9375 C 15.996094 8.816406 16.886719 7.921875 18.007812 7.921875 L 18.871094 7.921875 C 19.992188 7.921875 20.882812 8.816406 20.882812 9.9375 L 20.882812 11.460938 C 20.882812 11.601562 20.765625 11.71875 20.625 11.71875 L 20.308594 11.71875 C 20.164062 11.71875 20.046875 11.601562 20.046875 11.460938 L 20.046875 10.050781 C 20.046875 9.332031 19.472656 8.757812 18.753906 8.757812 L 18.152344 8.757812 C 17.433594 8.757812 16.859375 9.332031 16.859375 10.050781 L 16.859375 10.65625 C 16.859375 11.371094 17.433594 11.949219 18.152344 11.949219 L 19.15625 11.949219 C 19.359375 12.40625 19.789062 12.722656 20.308594 12.722656 L 20.625 12.722656 C 21.3125 12.722656 21.886719 12.148438 21.886719 11.460938 L 21.886719 9.9375 C 21.886719 8.296875 20.539062 6.945312 18.871094 6.945312 Z M 17.863281 10.710938 L 17.863281 10.109375 C 17.863281 9.964844 17.980469 9.820312 18.152344 9.820312 L 18.753906 9.820312 C 18.898438 9.820312 19.042969 9.9375 19.042969 10.109375 L 19.042969 11 L 18.152344 11 C 17.980469 11 17.863281 10.855469 17.863281 10.710938 Z M 17.863281 10.710938 "/></g></svg>