<svg xmlns="http://www.w3.org/2000/svg" xmlns:xlink="http://www.w3.org/1999/xlink" width="50" zoomAndPan="magnify" viewBox="0 0 37.5 37.499999" height="50" preserveAspectRatio="xMidYMid meet" version="1.2"><defs><clipPath id="3f4e028f3e"><path d="M 3.492188 1.25 L 33.839844 1.25 L 33.839844 36 L 3.492188 36 Z M 3.492188 1.25 "/></clipPath></defs><g id="5391c9d455"><g clip-rule="nonzero" clip-path="url(#3f4e028f3e)"><path style=" stroke:none;fill-rule:nonzero;fill:#ffffff;fill-opacity:1;" d="M 31.679688 33.699219 C 31.679688 33.796875 31.601562 33.875 31.503906 33.875 L 23.714844 33.875 C 23.617188 33.875 23.535156 33.796875 23.535156 33.699219 L 23.535156 21.738281 C 23.535156 20.632812 22.640625 19.738281 21.535156 19.738281 L 15.511719 19.738281 C 14.410156 19.738281 13.511719 20.632812 13.511719 21.738281 L 13.511719 33.699219 C 13.511719 33.796875 13.433594 33.875 13.332031 33.875 L 5.546875 33.875 C 5.449219 33.875 5.367188 33.796875 5.367188 33.699219 L 5.367188 17.335938 C 5.367188 17.328125 5.367188 17.320312 5.367188 17.3125 L 5.332031 16.003906 C 5.324219 15.703125 5.449219 15.40625 5.667969 15.199219 L 18.34375 3.167969 C 18.378906 3.136719 18.421875 3.121094 18.46875 3.121094 C 18.515625 3.121094 18.558594 3.136719 18.589844 3.171875 L 31.3125 15.242188 C 31.519531 15.4375 31.640625 15.707031 31.644531 15.992188 L 31.679688 17.347656 Z M 3.546875 33.699219 C 3.546875 34.800781 4.441406 35.699219 5.546875 35.699219 L 13.332031 35.699219 C 14.4375 35.699219 15.335938 34.800781 15.335938 33.699219 L 15.335938 21.738281 C 15.335938 21.640625 15.414062 21.558594 15.511719 21.558594 L 21.535156 21.558594 C 21.632812 21.558594 21.714844 21.640625 21.714844 21.738281 L 21.714844 33.699219 C 21.714844 34.800781 22.613281 35.699219 23.714844 35.699219 L 31.503906 35.699219 C 32.605469 35.699219 33.503906 34.800781 33.503906 33.699219 L 33.503906 17.335938 C 33.503906 17.328125 33.503906 17.320312 33.503906 17.3125 L 33.46875 15.945312 C 33.449219 15.171875 33.128906 14.453125 32.566406 13.917969 L 19.84375 1.847656 C 19.472656 1.492188 18.984375 1.296875 18.46875 1.296875 C 17.953125 1.296875 17.464844 1.492188 17.089844 1.847656 L 4.414062 13.878906 C 3.820312 14.441406 3.492188 15.234375 3.511719 16.054688 L 3.546875 17.347656 L 3.546875 33.699219 "/></g></g></svg>