<svg xmlns="http://www.w3.org/2000/svg" xmlns:xlink="http://www.w3.org/1999/xlink" width="50" zoomAndPan="magnify" viewBox="0 0 37.5 37.499999" height="50" preserveAspectRatio="xMidYMid meet" version="1.2"><defs><clipPath id="59074ca806"><path d="M 1.851562 1.851562 L 35.15625 1.851562 L 35.15625 35.15625 L 1.851562 35.15625 Z M 1.851562 1.851562 "/></clipPath></defs><g id="a5152bb933"><path style=" stroke:none;fill-rule:nonzero;fill:#ffffff;fill-opacity:1;" d="M 26.484375 11.507812 L 31.808594 12.703125 C 31.832031 12.703125 31.886719 12.703125 31.910156 12.703125 C 32.144531 12.703125 32.351562 12.546875 32.40625 12.285156 C 32.457031 12 32.300781 11.742188 32.015625 11.664062 L 26.695312 10.46875 C 26.40625 10.417969 26.148438 10.574219 26.070312 10.859375 C 26.042969 11.167969 26.199219 11.457031 26.484375 11.507812 Z M 26.484375 11.507812 "/><path style=" stroke:none;fill-rule:nonzero;fill:#ffffff;fill-opacity:1;" d="M 25.523438 13.375 C 25.472656 13.660156 25.628906 13.921875 25.914062 14 L 31.238281 15.195312 C 31.261719 15.195312 31.3125 15.195312 31.339844 15.195312 C 31.574219 15.195312 31.78125 15.039062 31.832031 14.777344 C 31.886719 14.492188 31.730469 14.234375 31.445312 14.15625 L 26.121094 12.960938 C 25.863281 12.933594 25.578125 13.117188 25.523438 13.375 Z M 25.523438 13.375 "/><path style=" stroke:none;fill-rule:nonzero;fill:#ffffff;fill-opacity:1;" d="M 24.929688 15.867188 C 24.875 16.152344 25.03125 16.414062 25.316406 16.492188 L 30.640625 17.6875 C 30.664062 17.6875 30.71875 17.6875 30.742188 17.6875 C 30.976562 17.6875 31.183594 17.53125 31.238281 17.269531 C 31.289062 16.984375 31.132812 16.726562 30.847656 16.648438 L 25.523438 15.453125 C 25.265625 15.425781 25.007812 15.609375 24.929688 15.867188 Z M 24.929688 15.867188 "/><path style=" stroke:none;fill-rule:nonzero;fill:#ffffff;fill-opacity:1;" d="M 24.355469 18.386719 C 24.304688 18.671875 24.460938 18.929688 24.746094 19.007812 L 30.066406 20.203125 C 30.09375 20.203125 30.144531 20.203125 30.171875 20.203125 C 30.40625 20.203125 30.613281 20.046875 30.664062 19.789062 C 30.71875 19.503906 30.5625 19.242188 30.277344 19.164062 L 24.980469 17.996094 C 24.695312 17.917969 24.410156 18.101562 24.355469 18.386719 Z M 24.355469 18.386719 "/><path style=" stroke:none;fill-rule:nonzero;fill:#ffffff;fill-opacity:1;" d="M 24.617188 25.265625 L 28.171875 26.070312 C 28.199219 26.070312 28.25 26.070312 28.277344 26.070312 C 28.511719 26.070312 28.71875 25.914062 28.769531 25.65625 C 28.820312 25.371094 28.667969 25.109375 28.378906 25.03125 L 23.085938 23.839844 L 23.992188 24.488281 C 24.304688 24.695312 24.488281 24.953125 24.617188 25.265625 Z M 24.617188 25.265625 "/><path style=" stroke:none;fill-rule:nonzero;fill:#ffffff;fill-opacity:1;" d="M 27.808594 27.550781 L 24.695312 26.847656 L 24.695312 27.914062 L 27.601562 28.5625 C 27.628906 28.5625 27.679688 28.5625 27.707031 28.5625 C 27.941406 28.5625 28.148438 28.40625 28.199219 28.148438 C 28.277344 27.886719 28.09375 27.628906 27.808594 27.550781 Z M 27.808594 27.550781 "/><path style=" stroke:none;fill-rule:nonzero;fill:#ffffff;fill-opacity:1;" d="M 28.875 23.578125 C 29.109375 23.578125 29.316406 23.421875 29.367188 23.164062 C 29.417969 22.878906 29.261719 22.617188 28.976562 22.539062 L 22.097656 20.980469 L 22.097656 22.046875 L 28.746094 23.550781 C 28.796875 23.578125 28.820312 23.578125 28.875 23.578125 Z M 28.875 23.578125 "/><path style=" stroke:none;fill-rule:nonzero;fill:#ffffff;fill-opacity:1;" d="M 20.617188 11.167969 L 21.058594 11.324219 C 21.347656 11.429688 21.605469 11.636719 21.789062 11.871094 C 22.304688 11.558594 22.722656 11.039062 22.851562 10.417969 C 22.980469 9.820312 22.878906 9.195312 22.566406 8.675781 C 22.226562 8.160156 21.710938 7.769531 21.085938 7.640625 C 20.617188 7.535156 20.175781 7.585938 19.761719 7.71875 C 19.917969 8.003906 19.996094 8.339844 19.996094 8.675781 L 19.996094 8.730469 C 20.175781 8.652344 20.359375 8.601562 20.566406 8.601562 C 20.671875 8.601562 20.773438 8.601562 20.851562 8.625 C 21.191406 8.703125 21.476562 8.910156 21.65625 9.195312 C 21.839844 9.480469 21.890625 9.820312 21.8125 10.15625 C 21.734375 10.78125 21.191406 11.167969 20.617188 11.167969 Z M 20.617188 11.167969 "/><path style=" stroke:none;fill-rule:nonzero;fill:#ffffff;fill-opacity:1;" d="M 22.097656 18.90625 L 22.097656 19.96875 L 22.382812 20.023438 C 22.410156 20.023438 22.460938 20.023438 22.488281 20.023438 C 22.722656 20.023438 22.929688 19.867188 22.980469 19.632812 L 23.734375 16.386719 C 23.863281 15.789062 23.761719 15.167969 23.449219 14.648438 C 23.136719 14.15625 22.644531 13.792969 22.097656 13.636719 L 22.097656 14.753906 C 22.28125 14.855469 22.460938 15.011719 22.566406 15.195312 C 22.746094 15.480469 22.800781 15.816406 22.722656 16.152344 Z M 22.097656 18.90625 "/><g clip-rule="nonzero" clip-path="url(#59074ca806)"><path style=" stroke:none;fill-rule:nonzero;fill:#ffffff;fill-opacity:1;" d="M 2.523438 29.550781 L 17.582031 35.050781 C 17.6875 35.105469 17.816406 35.105469 17.945312 35.105469 C 18.152344 35.105469 18.359375 35.050781 18.542969 34.921875 C 18.828125 34.742188 18.984375 34.402344 18.984375 34.066406 L 18.984375 32.949219 L 20.332031 33.519531 C 20.386719 33.546875 20.464844 33.574219 20.542969 33.574219 C 20.644531 33.574219 20.75 33.546875 20.828125 33.496094 C 20.980469 33.390625 21.058594 33.234375 21.058594 33.054688 L 21.058594 31.546875 L 23.136719 31.546875 C 23.421875 31.546875 23.65625 31.3125 23.65625 31.027344 L 23.65625 25.785156 C 23.65625 25.601562 23.578125 25.449219 23.421875 25.371094 L 21.058594 23.707031 L 21.058594 12.804688 C 21.058594 12.597656 20.929688 12.390625 20.722656 12.3125 L 18.984375 11.6875 L 18.984375 8.703125 C 18.984375 8.261719 18.722656 7.871094 18.308594 7.71875 L 5.199219 2.941406 L 21.996094 2.941406 L 21.996094 4.964844 L 24.695312 4.964844 L 24.695312 6.339844 L 16.648438 4.523438 C 16.515625 4.5 16.414062 4.5 16.285156 4.5 C 15.660156 4.5 15.140625 4.863281 14.882812 5.378906 L 15.867188 5.746094 C 15.972656 5.613281 16.128906 5.535156 16.285156 5.535156 C 16.308594 5.535156 16.363281 5.535156 16.386719 5.5625 L 33.625 9.457031 C 33.910156 9.507812 34.09375 9.792969 34.015625 10.078125 L 28.925781 32.015625 L 24.695312 31.054688 C 24.695312 31.417969 24.539062 31.78125 24.304688 32.042969 L 28.691406 33.027344 C 28.769531 33.054688 28.847656 33.054688 28.925781 33.054688 C 29.394531 33.054688 29.835938 32.742188 29.9375 32.25 L 35.050781 10.289062 C 35.15625 9.871094 35.078125 9.457031 34.84375 9.117188 C 34.609375 8.753906 34.273438 8.523438 33.859375 8.417969 L 25.734375 6.601562 L 25.734375 4.992188 C 25.734375 4.421875 25.265625 3.953125 24.695312 3.953125 L 23.035156 3.953125 L 23.035156 2.941406 C 23.035156 2.371094 22.566406 1.902344 21.996094 1.902344 L 2.890625 1.902344 C 2.316406 1.902344 1.851562 2.371094 1.851562 2.941406 L 1.851562 3.042969 C 1.851562 3.097656 1.851562 3.148438 1.851562 3.199219 L 1.851562 28.589844 C 1.851562 29.03125 2.109375 29.417969 2.523438 29.550781 Z M 18.984375 12.777344 L 20.023438 13.167969 L 20.023438 23.96875 C 20.023438 24.148438 20.101562 24.304688 20.253906 24.382812 L 22.617188 26.042969 L 22.617188 30.484375 L 20.542969 30.484375 C 20.253906 30.484375 20.023438 30.71875 20.023438 31.003906 L 20.023438 32.25 L 18.984375 31.808594 Z M 2.890625 3.199219 L 17.945312 8.703125 L 17.945312 34.09375 L 2.890625 28.589844 Z M 2.890625 3.199219 "/></g></g></svg>