<svg xmlns="http://www.w3.org/2000/svg" xmlns:xlink="http://www.w3.org/1999/xlink" width="50" zoomAndPan="magnify" viewBox="0 0 37.5 37.499999" height="50" preserveAspectRatio="xMidYMid meet" version="1.2"><defs><clipPath id="b5c8378fa6"><path d="M 17 0.652344 L 20 0.652344 L 20 5 L 17 5 Z M 17 0.652344 "/></clipPath><clipPath id="fdc2cc2600"><path d="M 2.417969 15 L 7 15 L 7 18 L 2.417969 18 Z M 2.417969 15 "/></clipPath><clipPath id="94a8a319a8"><path d="M 30 15 L 34.242188 15 L 34.242188 18 L 30 18 Z M 30 15 "/></clipPath></defs><g id="f315e9eb49"><path style=" stroke:none;fill-rule:nonzero;fill:#ffffff;fill-opacity:1;" d="M 18.328125 19.347656 C 18.9375 19.347656 19.433594 18.847656 19.433594 18.242188 L 19.433594 13.226562 C 19.433594 12.621094 18.9375 12.125 18.328125 12.125 C 17.722656 12.125 17.226562 12.621094 17.226562 13.226562 L 17.226562 18.242188 C 17.226562 18.847656 17.722656 19.347656 18.328125 19.347656 Z M 18.328125 19.347656 "/><path style=" stroke:none;fill-rule:nonzero;fill:#ffffff;fill-opacity:1;" d="M 18.328125 20.355469 C 17.667969 20.355469 17.128906 20.894531 17.128906 21.554688 C 17.128906 22.21875 17.667969 22.753906 18.328125 22.753906 C 18.992188 22.753906 19.527344 22.21875 19.527344 21.554688 C 19.527344 20.894531 18.992188 20.355469 18.328125 20.355469 Z M 18.328125 20.355469 "/><path style=" stroke:none;fill-rule:nonzero;fill:#ffffff;fill-opacity:1;" d="M 18.785156 6.863281 C 16.109375 6.738281 13.558594 7.691406 11.621094 9.542969 C 9.683594 11.394531 8.613281 13.890625 8.613281 16.566406 C 8.613281 18.769531 9.335938 20.847656 10.699219 22.578125 C 11.894531 24.089844 12.714844 25.558594 13.21875 27.058594 L 13.253906 27.171875 L 13.253906 31.066406 C 13.253906 31.566406 13.617188 31.980469 14.09375 32.0625 C 14.277344 34.242188 16.105469 35.957031 18.328125 35.957031 C 20.554688 35.957031 22.382812 34.242188 22.5625 32.0625 C 23.039062 31.980469 23.402344 31.566406 23.402344 31.066406 L 23.402344 27.171875 L 23.441406 27.058594 C 23.945312 25.550781 24.765625 24.085938 25.953125 22.585938 C 27.394531 20.761719 28.132812 18.472656 28.035156 16.140625 C 27.820312 11.167969 23.757812 7.089844 18.785156 6.863281 Z M 18.328125 33.925781 C 17.230469 33.925781 16.324219 33.128906 16.144531 32.082031 L 20.515625 32.082031 C 20.335938 33.128906 19.425781 33.925781 18.328125 33.925781 Z M 21.375 30.050781 L 15.285156 30.050781 L 15.285156 27.585938 L 21.375 27.585938 Z M 24.359375 21.328125 C 23.246094 22.734375 22.417969 24.125 21.835938 25.554688 L 14.820312 25.554688 C 14.242188 24.132812 13.410156 22.738281 12.292969 21.320312 C 11.214844 19.953125 10.644531 18.308594 10.644531 16.566406 C 10.644531 14.449219 11.488281 12.476562 13.023438 11.007812 C 14.554688 9.546875 16.566406 8.792969 18.691406 8.890625 C 22.625 9.070312 25.835938 12.292969 26.007812 16.226562 C 26.085938 18.074219 25.5 19.882812 24.359375 21.328125 Z M 24.359375 21.328125 "/><g clip-rule="nonzero" clip-path="url(#b5c8378fa6)"><path style=" stroke:none;fill-rule:nonzero;fill:#ffffff;fill-opacity:1;" d="M 18.328125 4.570312 C 18.890625 4.570312 19.34375 4.113281 19.34375 3.554688 L 19.34375 1.667969 C 19.34375 1.109375 18.890625 0.652344 18.328125 0.652344 C 17.769531 0.652344 17.3125 1.109375 17.3125 1.667969 L 17.3125 3.554688 C 17.3125 4.113281 17.769531 4.570312 18.328125 4.570312 Z M 18.328125 4.570312 "/></g><path style=" stroke:none;fill-rule:nonzero;fill:#ffffff;fill-opacity:1;" d="M 10.945312 5.804688 C 11.132812 6.128906 11.472656 6.3125 11.824219 6.3125 C 11.996094 6.3125 12.171875 6.269531 12.332031 6.175781 C 12.816406 5.894531 12.980469 5.273438 12.703125 4.789062 L 11.757812 3.15625 C 11.480469 2.671875 10.859375 2.503906 10.375 2.785156 C 9.886719 3.066406 9.722656 3.6875 10 4.171875 Z M 10.945312 5.804688 "/><path style=" stroke:none;fill-rule:nonzero;fill:#ffffff;fill-opacity:1;" d="M 7.566406 9.179688 L 5.933594 8.238281 C 5.449219 7.957031 4.828125 8.125 4.550781 8.609375 C 4.269531 9.09375 4.433594 9.714844 4.921875 9.996094 L 6.550781 10.9375 C 6.710938 11.03125 6.886719 11.074219 7.058594 11.074219 C 7.410156 11.074219 7.75 10.894531 7.9375 10.566406 C 8.21875 10.082031 8.054688 9.460938 7.566406 9.179688 Z M 7.566406 9.179688 "/><g clip-rule="nonzero" clip-path="url(#fdc2cc2600)"><path style=" stroke:none;fill-rule:nonzero;fill:#ffffff;fill-opacity:1;" d="M 6.332031 16.566406 C 6.332031 16.007812 5.878906 15.550781 5.316406 15.550781 L 3.433594 15.550781 C 2.871094 15.550781 2.417969 16.007812 2.417969 16.566406 C 2.417969 17.125 2.871094 17.582031 3.433594 17.582031 L 5.316406 17.582031 C 5.878906 17.582031 6.332031 17.125 6.332031 16.566406 Z M 6.332031 16.566406 "/></g><path style=" stroke:none;fill-rule:nonzero;fill:#ffffff;fill-opacity:1;" d="M 6.550781 22.195312 L 4.921875 23.136719 C 4.433594 23.417969 4.269531 24.039062 4.546875 24.523438 C 4.738281 24.847656 5.078125 25.03125 5.429688 25.03125 C 5.601562 25.03125 5.773438 24.988281 5.933594 24.894531 L 7.566406 23.953125 C 8.054688 23.671875 8.21875 23.050781 7.9375 22.566406 C 7.660156 22.078125 7.039062 21.914062 6.550781 22.195312 Z M 6.550781 22.195312 "/><path style=" stroke:none;fill-rule:nonzero;fill:#ffffff;fill-opacity:1;" d="M 31.738281 23.136719 L 30.105469 22.195312 C 29.621094 21.914062 29 22.082031 28.71875 22.566406 C 28.441406 23.050781 28.605469 23.671875 29.089844 23.953125 L 30.722656 24.894531 C 30.882812 24.988281 31.058594 25.03125 31.230469 25.03125 C 31.582031 25.03125 31.921875 24.847656 32.109375 24.523438 C 32.390625 24.039062 32.222656 23.417969 31.738281 23.136719 Z M 31.738281 23.136719 "/><g clip-rule="nonzero" clip-path="url(#94a8a319a8)"><path style=" stroke:none;fill-rule:nonzero;fill:#ffffff;fill-opacity:1;" d="M 33.226562 15.550781 L 31.34375 15.550781 C 30.78125 15.550781 30.328125 16.007812 30.328125 16.566406 C 30.328125 17.125 30.78125 17.582031 31.34375 17.582031 L 33.226562 17.582031 C 33.785156 17.582031 34.242188 17.125 34.242188 16.566406 C 34.242188 16.007812 33.785156 15.550781 33.226562 15.550781 Z M 33.226562 15.550781 "/></g><path style=" stroke:none;fill-rule:nonzero;fill:#ffffff;fill-opacity:1;" d="M 29.597656 11.074219 C 29.773438 11.074219 29.945312 11.03125 30.105469 10.9375 L 31.738281 9.996094 C 32.222656 9.714844 32.390625 9.09375 32.109375 8.609375 C 31.828125 8.125 31.210938 7.957031 30.722656 8.238281 L 29.089844 9.179688 C 28.605469 9.460938 28.441406 10.082031 28.71875 10.566406 C 28.90625 10.894531 29.25 11.074219 29.601562 11.074219 Z M 29.597656 11.074219 "/><path style=" stroke:none;fill-rule:nonzero;fill:#ffffff;fill-opacity:1;" d="M 24.328125 6.175781 C 24.488281 6.269531 24.664062 6.3125 24.835938 6.3125 C 25.183594 6.3125 25.527344 6.128906 25.714844 5.804688 L 26.65625 4.171875 C 26.9375 3.6875 26.769531 3.066406 26.285156 2.785156 C 25.800781 2.503906 25.179688 2.671875 24.898438 3.15625 L 23.957031 4.789062 C 23.675781 5.273438 23.84375 5.894531 24.328125 6.175781 Z M 24.328125 6.175781 "/></g></svg>