<svg xmlns="http://www.w3.org/2000/svg" xmlns:xlink="http://www.w3.org/1999/xlink" width="50" zoomAndPan="magnify" viewBox="0 0 37.5 37.499999" height="50" preserveAspectRatio="xMidYMid meet" version="1.2"><defs><clipPath id="54eba021e2"><path d="M 1.238281 4.085938 L 36 4.085938 L 36 32.953125 L 1.238281 32.953125 Z M 1.238281 4.085938 "/></clipPath></defs><g id="88a45d5be7"><g clip-rule="nonzero" clip-path="url(#54eba021e2)"><path style=" stroke:none;fill-rule:evenodd;fill:#ffffff;fill-opacity:1;" d="M 22.953125 5.496094 C 22.953125 5.390625 22.871094 5.3125 22.765625 5.3125 L 5.027344 5.285156 C 4.949219 5.285156 4.898438 5.339844 4.898438 5.417969 L 4.898438 15.28125 C 4.898438 15.386719 4.976562 15.441406 5.054688 15.441406 C 5.054688 15.441406 5.082031 15.441406 5.082031 15.441406 L 13.195312 13.1875 C 13.460938 13.105469 13.671875 12.949219 13.804688 12.734375 L 16.988281 8.359375 C 17.09375 8.203125 17.277344 8.09375 17.492188 8.09375 C 17.625 8.09375 17.753906 8.148438 17.886719 8.226562 L 22.261719 11.648438 C 22.289062 11.675781 22.289062 11.675781 22.289062 11.675781 C 22.34375 11.753906 22.34375 11.859375 22.289062 11.914062 C 22.261719 11.941406 22.261719 11.941406 22.261719 11.941406 L 21.601562 12.390625 C 21.46875 12.46875 21.335938 12.46875 21.203125 12.363281 L 17.78125 9.6875 C 17.753906 9.660156 17.703125 9.660156 17.648438 9.660156 C 17.570312 9.660156 17.515625 9.6875 17.492188 9.738281 C 16.640625 10.933594 15.765625 12.125 14.917969 13.320312 C 14.574219 13.769531 14.363281 14.113281 13.804688 14.273438 C 10.808594 15.070312 7.917969 15.863281 5.1875 16.632812 C 5.003906 16.6875 4.898438 16.816406 4.898438 17.03125 L 4.898438 18.488281 C 4.898438 18.726562 5.003906 18.832031 5.242188 18.832031 L 5.902344 18.832031 C 6.0625 18.832031 6.144531 18.9375 6.144531 19.097656 L 6.144531 19.8125 C 6.144531 19.945312 6.0625 20.027344 5.929688 20.027344 L 4.207031 20.027344 C 3.941406 20.027344 3.730469 19.8125 3.730469 19.550781 L 3.730469 4.648438 C 3.730469 4.277344 3.914062 4.117188 4.261719 4.117188 L 23.722656 4.09375 C 23.960938 4.09375 24.144531 4.277344 24.144531 4.515625 L 24.144531 10.613281 C 24.144531 10.828125 24.066406 10.957031 23.878906 11.066406 L 23.191406 11.382812 C 23.03125 11.460938 22.953125 11.410156 22.953125 11.25 Z M 17.011719 18.832031 L 18.046875 18.832031 C 18.179688 18.832031 18.257812 18.914062 18.257812 19.046875 L 18.257812 19.839844 C 18.257812 19.945312 18.179688 20.054688 18.046875 20.054688 L 17.011719 20.054688 C 16.90625 20.054688 16.800781 19.945312 16.800781 19.839844 L 16.800781 19.046875 C 16.800781 18.9375 16.878906 18.832031 17.011719 18.832031 Z M 6.699219 28.140625 L 6.699219 18.011719 C 6.699219 17.746094 6.886719 17.535156 7.125 17.480469 L 15.527344 15.863281 C 15.554688 15.863281 15.582031 15.863281 15.582031 15.863281 C 15.898438 15.835938 16.164062 16.050781 16.191406 16.367188 C 16.191406 16.367188 16.191406 16.394531 16.191406 16.421875 C 16.191406 20.820312 16.191406 24.878906 16.191406 28.644531 C 16.164062 31.136719 12.929688 31.453125 11.207031 30.683594 C 9.246094 29.808594 9.535156 27.34375 11.417969 26.601562 C 12.53125 26.175781 13.644531 26.203125 14.8125 26.734375 C 14.839844 26.734375 14.839844 26.734375 14.867188 26.734375 C 14.945312 26.734375 15.023438 26.679688 15.023438 26.601562 L 15 21.246094 C 15 21.167969 14.917969 21.113281 14.867188 21.113281 C 14.839844 21.113281 14.839844 21.113281 14.839844 21.113281 L 8.050781 22.386719 C 7.945312 22.414062 7.894531 22.492188 7.894531 22.625 C 7.867188 24.929688 7.867188 27.292969 7.894531 29.675781 C 7.894531 30.394531 7.8125 30.898438 7.628906 31.242188 C 6.753906 32.886719 4.179688 32.910156 2.75 32.195312 C 1.792969 31.71875 1.238281 30.550781 1.6875 29.542969 C 2.484375 27.742188 4.921875 27.582031 6.460938 28.273438 C 6.621094 28.351562 6.699219 28.296875 6.699219 28.140625 Z M 14.867188 19.894531 C 14.945312 19.894531 15 19.8125 15 19.734375 L 15 17.402344 C 15 17.296875 14.917969 17.242188 14.839844 17.242188 C 14.839844 17.242188 14.8125 17.242188 14.8125 17.242188 L 8 18.515625 C 7.917969 18.515625 7.867188 18.59375 7.867188 18.648438 L 7.867188 21.035156 C 7.867188 21.113281 7.945312 21.191406 8.023438 21.191406 C 8.023438 21.191406 8.050781 21.191406 8.050781 21.191406 Z M 15 28.695312 C 15 28.722656 15 28.722656 15 28.722656 C 15 28.058594 14.125 27.53125 13.035156 27.53125 C 11.949219 27.53125 11.074219 28.058594 11.074219 28.722656 C 11.074219 29.359375 11.949219 29.914062 13.035156 29.914062 C 14.125 29.914062 15 29.359375 15 28.722656 Z M 6.699219 30.285156 C 6.699219 30.261719 6.699219 30.261719 6.699219 30.261719 C 6.699219 29.625 5.824219 29.09375 4.738281 29.09375 C 3.652344 29.09375 2.777344 29.625 2.777344 30.261719 C 2.777344 30.898438 3.652344 31.425781 4.738281 31.425781 C 5.824219 31.425781 6.699219 30.898438 6.699219 30.261719 Z M 31.648438 19.945312 L 25.578125 23.445312 C 25.496094 23.5 25.390625 23.527344 25.285156 23.527344 C 24.96875 23.527344 24.703125 23.261719 24.703125 22.917969 L 24.703125 15.917969 C 24.703125 15.597656 24.96875 15.332031 25.285156 15.332031 C 25.390625 15.332031 25.496094 15.359375 25.605469 15.414062 L 31.648438 18.914062 C 31.835938 19.019531 31.941406 19.203125 31.941406 19.417969 C 31.941406 19.628906 31.835938 19.839844 31.648438 19.945312 Z M 26.054688 17.058594 C 26.027344 17.03125 26 17.03125 25.976562 17.03125 C 25.921875 17.03125 25.867188 17.082031 25.867188 17.164062 L 25.867188 21.695312 C 25.867188 21.777344 25.921875 21.828125 25.976562 21.828125 C 26 21.828125 26.027344 21.804688 26.054688 21.804688 L 29.976562 19.523438 C 30.003906 19.496094 30.03125 19.46875 30.03125 19.417969 C 30.03125 19.390625 30.003906 19.335938 29.976562 19.3125 Z M 35.757812 19.417969 C 35.757812 24.082031 31.964844 27.875 27.300781 27.875 C 22.632812 27.875 18.871094 24.082031 18.871094 19.417969 C 18.871094 14.75 22.632812 10.984375 27.300781 10.984375 C 31.964844 10.984375 35.757812 14.75 35.757812 19.417969 Z M 34.539062 19.417969 C 34.539062 15.441406 31.277344 12.203125 27.300781 12.203125 C 23.296875 12.203125 20.0625 15.441406 20.0625 19.441406 C 20.0625 23.421875 23.296875 26.65625 27.300781 26.65625 C 31.277344 26.65625 34.539062 23.421875 34.539062 19.441406 Z M 13.222656 9.261719 C 13.222656 10.773438 12.003906 12.019531 10.492188 12.019531 C 8.953125 12.019531 7.734375 10.773438 7.734375 9.261719 C 7.734375 7.75 8.953125 6.503906 10.492188 6.503906 C 12.003906 6.503906 13.222656 7.75 13.222656 9.261719 Z M 12.027344 9.261719 C 12.027344 8.386719 11.339844 7.699219 10.492188 7.699219 C 9.617188 7.699219 8.925781 8.386719 8.925781 9.261719 C 8.925781 10.109375 9.617188 10.828125 10.492188 10.828125 C 11.339844 10.828125 12.027344 10.109375 12.027344 9.261719 Z M 12.027344 9.261719 "/></g></g></svg>