<svg xmlns="http://www.w3.org/2000/svg" xmlns:xlink="http://www.w3.org/1999/xlink" width="50" zoomAndPan="magnify" viewBox="0 0 37.5 37.499999" height="50" preserveAspectRatio="xMidYMid meet" version="1.2"><defs><clipPath id="0c9323a881"><path d="M 0.878906 1.671875 L 34 1.671875 L 34 26 L 0.878906 26 Z M 0.878906 1.671875 "/></clipPath><clipPath id="ee501cc416"><path d="M 11.960938 27.773438 L 19.164062 27.773438 L 19.164062 34.972656 L 11.960938 34.972656 Z M 11.960938 27.773438 "/></clipPath><clipPath id="39193498d6"><path d="M 23.960938 27.773438 L 31.167969 27.773438 L 31.167969 34.972656 L 23.960938 34.972656 Z M 23.960938 27.773438 "/></clipPath><clipPath id="1cd336213f"><path d="M 10.472656 5.0625 L 35.761719 5.0625 L 35.761719 19.746094 L 10.472656 19.746094 Z M 10.472656 5.0625 "/></clipPath></defs><g id="0b26b7d665"><g clip-rule="nonzero" clip-path="url(#0c9323a881)"><path style=" stroke:none;fill-rule:nonzero;fill:#ffffff;fill-opacity:1;" d="M 32.25 24.28125 L 12.792969 24.28125 C 11.535156 24.28125 10.515625 23.261719 10.515625 22.007812 C 10.515625 21.121094 11.035156 20.308594 11.839844 19.9375 C 11.851562 19.933594 11.863281 19.925781 11.875 19.917969 C 11.882812 19.917969 11.886719 19.914062 11.894531 19.910156 C 11.910156 19.898438 11.925781 19.890625 11.941406 19.878906 C 11.949219 19.875 11.953125 19.871094 11.960938 19.867188 C 11.976562 19.855469 11.992188 19.84375 12.003906 19.832031 C 12.011719 19.828125 12.015625 19.824219 12.019531 19.820312 C 12.035156 19.808594 12.050781 19.796875 12.0625 19.78125 C 12.066406 19.777344 12.070312 19.773438 12.074219 19.769531 C 12.089844 19.753906 12.101562 19.742188 12.113281 19.726562 C 12.117188 19.722656 12.121094 19.714844 12.125 19.710938 C 12.136719 19.695312 12.148438 19.683594 12.160156 19.664062 C 12.160156 19.660156 12.164062 19.65625 12.167969 19.648438 C 12.179688 19.636719 12.1875 19.621094 12.195312 19.605469 C 12.199219 19.597656 12.203125 19.589844 12.207031 19.582031 C 12.214844 19.570312 12.222656 19.554688 12.226562 19.539062 C 12.230469 19.53125 12.234375 19.523438 12.238281 19.511719 C 12.242188 19.5 12.25 19.484375 12.253906 19.472656 C 12.257812 19.460938 12.261719 19.449219 12.261719 19.441406 C 12.265625 19.425781 12.269531 19.414062 12.273438 19.402344 C 12.277344 19.390625 12.277344 19.378906 12.28125 19.367188 C 12.28125 19.355469 12.285156 19.339844 12.285156 19.328125 C 12.289062 19.316406 12.289062 19.304688 12.289062 19.289062 C 12.292969 19.277344 12.292969 19.265625 12.292969 19.253906 C 12.292969 19.238281 12.292969 19.226562 12.292969 19.214844 C 12.292969 19.203125 12.292969 19.1875 12.289062 19.175781 C 12.289062 19.164062 12.289062 19.152344 12.289062 19.136719 C 12.285156 19.125 12.285156 19.113281 12.28125 19.097656 C 12.28125 19.085938 12.277344 19.074219 12.273438 19.0625 C 12.273438 19.046875 12.269531 19.035156 12.265625 19.023438 C 12.261719 19.011719 12.261719 19.003906 12.257812 18.996094 L 7.042969 2.226562 C 6.9375 1.898438 6.636719 1.675781 6.292969 1.675781 L 1.660156 1.675781 C 1.230469 1.675781 0.878906 2.023438 0.878906 2.457031 C 0.878906 2.890625 1.230469 3.242188 1.660156 3.242188 L 5.71875 3.242188 L 10.578125 18.867188 C 9.570312 19.578125 8.949219 20.75 8.949219 22.007812 C 8.949219 24.097656 10.628906 25.800781 12.710938 25.847656 C 12.722656 25.847656 12.738281 25.847656 12.75 25.847656 L 32.25 25.847656 C 32.679688 25.847656 33.03125 25.496094 33.03125 25.066406 C 33.03125 24.632812 32.679688 24.28125 32.25 24.28125 "/></g><g clip-rule="nonzero" clip-path="url(#ee501cc416)"><path style=" stroke:none;fill-rule:nonzero;fill:#ffffff;fill-opacity:1;" d="M 15.558594 33.40625 C 14.441406 33.40625 13.535156 32.5 13.535156 31.382812 C 13.535156 30.265625 14.441406 29.355469 15.558594 29.355469 C 16.675781 29.355469 17.585938 30.265625 17.585938 31.382812 C 17.585938 32.5 16.675781 33.40625 15.558594 33.40625 Z M 15.558594 27.789062 C 13.578125 27.789062 11.96875 29.398438 11.96875 31.382812 C 11.96875 33.363281 13.578125 34.972656 15.558594 34.972656 C 17.539062 34.972656 19.152344 33.363281 19.152344 31.382812 C 19.152344 29.398438 17.539062 27.789062 15.558594 27.789062 "/></g><g clip-rule="nonzero" clip-path="url(#39193498d6)"><path style=" stroke:none;fill-rule:nonzero;fill:#ffffff;fill-opacity:1;" d="M 27.570312 33.40625 C 26.453125 33.40625 25.546875 32.5 25.546875 31.382812 C 25.546875 30.265625 26.453125 29.355469 27.570312 29.355469 C 28.6875 29.355469 29.597656 30.265625 29.597656 31.382812 C 29.597656 32.5 28.6875 33.40625 27.570312 33.40625 Z M 27.570312 27.789062 C 25.589844 27.789062 23.980469 29.398438 23.980469 31.382812 C 23.980469 33.363281 25.589844 34.972656 27.570312 34.972656 C 29.550781 34.972656 31.164062 33.363281 31.164062 31.382812 C 31.164062 29.398438 29.550781 27.789062 27.570312 27.789062 "/></g><g clip-rule="nonzero" clip-path="url(#1cd336213f)"><path style=" stroke:none;fill-rule:nonzero;fill:#ffffff;fill-opacity:1;" d="M 33.421875 9.417969 L 29.984375 9.417969 L 30.578125 6.628906 L 34.011719 6.628906 Z M 32.484375 13.824219 L 29.050781 13.824219 L 29.652344 10.984375 L 33.085938 10.984375 Z M 31.5625 18.164062 L 28.128906 18.164062 L 28.71875 15.390625 L 32.152344 15.390625 Z M 27.449219 13.824219 L 24.015625 13.824219 L 24.617188 10.984375 L 28.050781 10.984375 Z M 26.527344 18.164062 L 23.089844 18.164062 L 23.679688 15.390625 L 27.117188 15.390625 Z M 22.414062 13.824219 L 18.976562 13.824219 L 19.582031 10.984375 L 23.015625 10.984375 Z M 21.492188 18.164062 L 18.054688 18.164062 L 18.644531 15.390625 L 22.078125 15.390625 Z M 14.972656 9.417969 L 15.488281 6.628906 L 18.90625 6.628906 L 18.3125 9.417969 Z M 20.507812 6.628906 L 23.941406 6.628906 L 23.347656 9.417969 L 19.914062 9.417969 Z M 25.542969 6.628906 L 28.976562 6.628906 L 28.382812 9.417969 L 24.949219 9.417969 Z M 35.589844 5.355469 C 35.441406 5.171875 35.214844 5.0625 34.980469 5.0625 L 29.953125 5.0625 C 29.949219 5.0625 29.949219 5.0625 29.945312 5.0625 L 24.914062 5.0625 C 24.914062 5.0625 24.914062 5.0625 24.910156 5.0625 L 19.882812 5.0625 C 19.878906 5.0625 19.875 5.0625 19.871094 5.0625 L 11.261719 5.0625 C 10.828125 5.0625 10.480469 5.414062 10.480469 5.847656 C 10.480469 6.28125 10.828125 6.628906 11.261719 6.628906 L 13.894531 6.628906 L 13.378906 9.417969 L 12.382812 9.417969 C 11.949219 9.417969 11.597656 9.769531 11.597656 10.203125 C 11.597656 10.632812 11.949219 10.984375 12.382812 10.984375 L 14.027344 10.984375 C 14.027344 10.984375 14.03125 10.984375 14.03125 10.984375 C 14.03125 10.984375 14.035156 10.984375 14.035156 10.984375 L 17.980469 10.984375 L 17.375 13.824219 L 13.527344 13.824219 C 13.09375 13.824219 12.742188 14.171875 12.742188 14.605469 C 12.742188 15.039062 13.09375 15.390625 13.527344 15.390625 L 17.042969 15.390625 L 16.453125 18.164062 L 14.648438 18.164062 C 14.214844 18.164062 13.863281 18.515625 13.863281 18.945312 C 13.863281 19.378906 14.214844 19.730469 14.648438 19.730469 L 17.085938 19.730469 C 17.085938 19.730469 17.089844 19.730469 17.089844 19.730469 C 17.089844 19.730469 17.089844 19.730469 17.09375 19.730469 L 22.121094 19.730469 C 22.125 19.730469 22.125 19.730469 22.125 19.730469 C 22.125 19.730469 22.128906 19.730469 22.128906 19.730469 L 27.15625 19.730469 C 27.160156 19.730469 27.160156 19.730469 27.160156 19.730469 C 27.164062 19.730469 27.164062 19.730469 27.164062 19.730469 L 32.195312 19.730469 C 32.566406 19.730469 32.886719 19.472656 32.960938 19.109375 L 34.820312 10.363281 C 34.820312 10.359375 34.820312 10.359375 34.820312 10.355469 L 35.746094 6.011719 C 35.796875 5.777344 35.738281 5.539062 35.589844 5.355469 "/></g></g></svg>